# xmcd
#
# Track frame offsets:
#	150
#	19979
#	34796
#	57267
#	78500
#	104010
#	122994
#	141708
#	163055
#	180278
#
# Disc length: 2625 seconds
#
# Revision: 1
# Processed by: cddbd v1.5.1PL0 Copyright (c) Steve Scherf et al.
# Submitted via: CDmax 2.0
#
DISCID=8e0a3f0a
DTITLE=So's Sweet - Rain or Shine
DYEAR=2004
DGENRE=Soul
TTITLE0=Procrastinate
TTITLE1=Rain or Shine
TTITLE2=Start the Funk
TTITLE3=Love you through think and thin
TTITLE4=Power of his love
TTITLE5=Fish nets
TTITLE6=In you eyes tonight
TTITLE7=Do you dream of me
TTITLE8=She's not mine
TTITLE9=Od to G.B.
EXTD=
EXTT0=
EXTT1=
EXTT2=
EXTT3=
EXTT4=
EXTT5=
EXTT6=
EXTT7=
EXTT8=
EXTT9=
PLAYORDER=
